<svg width="128" height="128" viewBox="0 0 128 128" fill="none" xmlns="http://www.w3.org/2000/svg">
<path d="M39.5081 4.87168C47.273 1.65559 55.5955 0 64 0V32C59.7976 32 55.6365 32.8276 51.7541 34.436C47.8716 36.0441 44.344 38.4011 41.3725 41.3725C38.4011 44.344 36.0441 47.8716 34.436 51.7541C32.8276 55.6365 32 59.7976 32 64H0C0 55.5955 1.65559 47.273 4.87168 39.5081C8.08814 31.7433 12.8022 24.6883 18.7451 18.7451C24.6883 12.8022 31.7433 8.08814 39.5081 4.87168Z" fill="#5E4916"/>
<path d="M0 64C0 72.4045 1.65559 80.727 4.87168 88.4919C8.08814 96.2567 12.8022 103.312 18.7451 109.255C24.6883 115.198 31.7433 119.912 39.5081 123.128C47.273 126.344 55.5955 128 64 128C72.4045 128 80.727 126.344 88.4919 123.128C96.2567 119.912 103.312 115.198 109.255 109.255C115.198 103.312 119.912 96.2567 123.128 88.4919C126.344 80.727 128 72.4045 128 64H96C96 68.2024 95.1724 72.3635 93.564 76.2459C91.9559 80.1284 89.5989 83.656 86.6275 86.6275C83.6561 89.5989 80.1284 91.9559 76.2459 93.564C72.3635 95.1724 68.2024 96 64 96C59.7976 96 55.6365 95.1724 51.7541 93.564C47.8716 91.9559 44.344 89.5989 41.3725 86.6275C38.4011 83.656 36.0441 80.1284 34.436 76.2459C32.8276 72.3635 32 68.2024 32 64H0Z" fill="#FF913B"/>
<path d="M64 43.6365C52.7535 43.6365 43.6364 52.7536 43.6364 64.0001H84.3637C84.3637 52.7536 75.2465 43.6365 64 43.6365Z" fill="#FF913B"/>
<path d="M64 84.3638C52.7535 84.3638 43.6364 75.2467 43.6364 64.0001H84.3637C84.3637 75.2467 75.2465 84.3638 64 84.3638Z" fill="#5E4916"/>
</svg>
